<?xml version="1.0" standalone="no"?><!DOCTYPE svg PUBLIC "-//W3C//DTD SVG 1.1//EN" "http://www.w3.org/Graphics/SVG/1.1/DTD/svg11.dtd"><svg t="1572065689329" class="icon" viewBox="0 0 1162 1024" version="1.1" xmlns="http://www.w3.org/2000/svg" p-id="1568" xmlns:xlink="http://www.w3.org/1999/xlink" width="226.953125" height="200"><defs><style type="text/css"></style></defs><path d="M1024.408674 676.899827l-13.213782-3.950512V206.516429a34.056139 34.056139 0 0 0-34.05614-34.056139H800.864175V34.056139a34.056139 34.056139 0 0 0-34.05614-34.056139H535.90741a34.056139 34.056139 0 0 0-34.05614 34.056139v74.514833h-124.236796a34.056139 34.056139 0 0 0-34.05614 34.05614v101.62352H184.856725a34.056139 34.056139 0 0 0-34.05614 34.056139v362.765997c0 6.538779 1.907144 12.532659 5.040309 17.709193l-41.003592 21.251031a41.003592 41.003592 0 0 0-22.068378 36.235732v52.855129H136.224558v33.919914l38.415325 15.938274V741.061594l166.057736-86.230145 185.810296 71.381668V886.82187c11.442863 0.408674 22.885726 0.817347 34.464813 0.953572l20.433684 0.272449 19.752561-0.272449c2.315817 0 4.76786-0.136225 7.083677-0.272449v-189.352135c0-16.891845-10.489291-32.148996-26.155115-38.142876l-5.312758-2.043368v-6.947453h222.046029v222.318478c27.381136-3.814288 53.672476-8.309698 78.192896-13.622456l3.541839-0.817347V718.993215l91.134229 27.517361v86.775043c15.25715-5.721431 28.607157-11.579087 39.505122-17.572968l11.987761-6.538778 2.724491-2.315818v-37.461753h27.653585v-53.263802c-0.136225-18.117866-11.987761-34.056139-29.152055-39.232673zM343.558334 366.035386h-33.511241a34.056139 34.056139 0 0 0 0 68.112279h33.511241v64.979114h-33.511241a34.056139 34.056139 0 0 0 0 68.112279h33.511241v2.588267c-8.309698-1.089796-16.755621 0.272449-24.247971 4.222961l-100.397499 52.174006V312.499135h124.64547v53.536251z m195.618465 203.24704c6.675003-6.26633 10.897965-14.984701 10.897965-24.929094a34.056139 34.056139 0 0 0-34.05614-34.056139h-1.770919a34.056139 34.056139 0 0 0-34.056139 34.056139c0 17.572968 13.486231 32.012771 30.650525 33.647466a40.594918 40.594918 0 0 0-15.802048 32.012771V626.632965l-83.36943-32.012771V176.683251h183.903153v389.73846c0 0.953572 0.272449 1.907144 0.272449 2.860715h-56.669416z m193.575097 0H663.413596c0.136225-0.953572 0.272449-1.907144 0.272449-2.860715V142.627112a34.056139 34.056139 0 0 0-34.056139-34.05614h-59.666357V68.112279h162.788347v501.170147z m210.330717 83.096981l-62.527072-18.798989v-23.430624c0-22.613277-18.254091-40.867367-40.867368-40.867368h-38.823998v-37.053079h30.922974a34.056139 34.056139 0 0 0 0-68.112279h-30.922974v-62.663297h30.922974a34.056139 34.056139 0 0 0 0-68.112278h-30.922974v-92.768924h142.218438v411.806838z m-563.288546 107.6174H321.489956c-22.613277 0-40.867367 18.254091-40.867367 40.867368v58.031661l4.631635 0.953572c35.690834 7.628575 74.787282 13.75868 116.199547 18.390315l18.935214 2.179593h0.408674v-79.555141c-0.136225-22.477052-18.390315-40.867367-41.003592-40.867368z m330.753226-59.938805h-23.2944a34.056139 34.056139 0 0 0-34.056139 34.056139v43.046961a34.056139 34.056139 0 0 0 34.056139 34.056139h23.2944a34.056139 34.056139 0 0 0 34.056139-34.056139v-43.046961c0-18.935214-15.25715-34.056139-34.056139-34.056139zM516.018624 377.342025h-1.770919a34.056139 34.056139 0 0 0 0 68.112279h1.770919a34.056139 34.056139 0 0 0 0-68.112279z m0-132.955169h-1.770919a34.056139 34.056139 0 0 0 0 68.112279h1.770919a34.056139 34.056139 0 0 0 0-68.112279zM1080.396967 823.7499c0 3.814288-3.950512 11.306638-14.984701 20.842358l53.263802 61.982173c35.827059-30.78675 43.319409-61.982174 43.319409-82.824531h-81.59851zM896.902488 952.754556l-8.582147-39.505121c-37.461753 8.037249-78.329121 14.439803-121.512306 19.207662l8.990821 81.189837c45.907676-5.040309 89.36331-11.987761 129.549554-20.569909l-0.136224-0.408673 4.631635-0.817348-12.941333-39.096448zM234.306239 903.84994c-0.136225 0-0.272449 0-0.272449-0.136224-44.272981-11.579087-82.143408-25.473992-109.115871-40.322469l-39.232672 71.654117c33.511241 18.390315 76.558201 34.464813 128.187309 47.81482l9.671943-37.325529 0.136225-0.408674-9.535719 37.870427 10.080617-39.641346 12.941333-38.823999-2.860716-0.681123zM1057.78369 900.580551l-0.817347-1.362246-19.616336-35.827058c-27.108687 14.848477-64.979114 28.879606-109.524545 40.458693l20.569908 79.146468c50.947985-13.213782 93.586271-29.152055 126.825064-47.133697h0.136224c0.408674-0.272449 0.817347-0.408674 1.226021-0.681123l-18.798989-34.601037zM99.035253 846.77185L96.583211 844.592258C85.685247 835.192763 81.734735 827.700412 81.734735 823.7499H0c0 20.706133 7.492351 51.901556 43.319409 82.824531l4.222962 3.26939 22.613276-33.783691 28.879606-29.28828zM729.346282 936.271385l-3.541839 0.136224c-40.186245 3.405614-82.007184 5.312758-123.964347 5.857656l0.953572 81.734735c44.000532-0.544898 87.728615-2.588267 129.958228-6.130105l-3.26939-39.096448v-42.502062zM273.811361 913.249435l-17.02807 79.963815c40.05002 8.582147 83.641878 15.393375 129.549555 20.569908v-0.544898l4.631635 0.681123V972.643342l4.359185-40.186245c-43.183185-4.76786-84.186777-11.306638-121.512305-19.207662zM436.463483 936.407609l-6.811228 81.462286c42.093388 3.541838 85.821471 5.585207 129.958228 6.130105l0.408674-40.867367v-5.585207l0.408673-35.282161c-42.229613-0.544898-83.914328-2.452042-123.964347-5.857656z" p-id="1569" fill="#ffffff"></path></svg>